# xmcd
#
# Track frame offsets:
#	182
#	19685
#	36717
#	52830
#	66795
#	85195
#	102335
#	121517
#	143392
#	162735
#	180417
#	205130
#	222732
#
# Disc length: 3215 seconds
#
# Revision: 2
# Processed by: cddbd v1.5.1PL0 Copyright (c) Steve Scherf et al.
# Submitted via: MusicWizard 7.0.2
#
DISCID=b20c8d0d
DTITLE=Vince Gill - When Love Finds You
DYEAR=1994
DGENRE=Country
TTITLE0=Whenever You Come Around
TTITLE1=You Better Think Twice
TTITLE2=Real Lady's Man
TTITLE3=What The Cowgirls Do
TTITLE4=When Love Finds You
TTITLE5=If There's Anything I Can Do
TTITLE6=South Side Of Dixie
TTITLE7=Maybe Tonight
TTITLE8=Which Bridge To Cross (Which Bridge To Burn)
TTITLE9=If I Had My Way
TTITLE10=Go Rest High On That Mountain
TTITLE11=Ain't Nothin' Like The Real Thing Baby
TTITLE12=I Can't Tell You Why
EXTD=\nURL: http://www.mca-nashville.com/vg/vgalbum.htm "Vince Gill"
EXTT0=
EXTT1=
EXTT2=
EXTT3=
EXTT4=
EXTT5=
EXTT6=
EXTT7=
EXTT8=
EXTT9=
EXTT10=
EXTT11=Duet with Gladys Knight\n
EXTT12=
PLAYORDER=
